<mxfile host="app.diagrams.net" modified="2024-06-24T00:09:46.524Z" agent="Mozilla/5.0 (Windows NT 10.0; Win64; x64) AppleWebKit/537.36 (KHTML, like Gecko) Chrome/126.0.0.0 Safari/537.36" etag="3pF6qeKcY-jc_TEW9V5u" version="24.5.2" type="device">
  <diagram name="P치gina-1" id="CvsZv_Ztu27qMy_9G_Mw">
    <mxGraphModel dx="1290" dy="589" grid="1" gridSize="10" guides="1" tooltips="1" connect="1" arrows="1" fold="1" page="1" pageScale="1" pageWidth="827" pageHeight="1169" math="0" shadow="0">
      <root>
        <mxCell id="0" />
        <mxCell id="1" parent="0" />
        <mxCell id="aubl9fLA4f7FaGW1a_eC-1" value="&lt;b&gt;&lt;font style=&quot;font-size: 14px;&quot;&gt;Diagrama de Arquitectura de Soluci칩n de Sistema de Seguridad&lt;/font&gt;&lt;/b&gt;" style="text;html=1;align=center;verticalAlign=middle;whiteSpace=wrap;rounded=0;" vertex="1" parent="1">
          <mxGeometry x="190" width="470" height="30" as="geometry" />
        </mxCell>
        <mxCell id="aubl9fLA4f7FaGW1a_eC-6" value="t_usuarios" style="sketch=0;points=[[0,0,0],[0.25,0,0],[0.5,0,0],[0.75,0,0],[1,0,0],[0,1,0],[0.25,1,0],[0.5,1,0],[0.75,1,0],[1,1,0],[0,0.25,0],[0,0.5,0],[0,0.75,0],[1,0.25,0],[1,0.5,0],[1,0.75,0]];outlineConnect=0;fontColor=#232F3E;fillColor=#C925D1;strokeColor=#ffffff;dashed=0;verticalLabelPosition=bottom;verticalAlign=top;align=center;html=1;fontSize=12;fontStyle=0;aspect=fixed;shape=mxgraph.aws4.resourceIcon;resIcon=mxgraph.aws4.dynamodb;" vertex="1" parent="1">
          <mxGeometry x="650" y="50" width="78" height="78" as="geometry" />
        </mxCell>
        <mxCell id="aubl9fLA4f7FaGW1a_eC-7" value="t_tokens_acceso" style="sketch=0;points=[[0,0,0],[0.25,0,0],[0.5,0,0],[0.75,0,0],[1,0,0],[0,1,0],[0.25,1,0],[0.5,1,0],[0.75,1,0],[1,1,0],[0,0.25,0],[0,0.5,0],[0,0.75,0],[1,0.25,0],[1,0.5,0],[1,0.75,0]];outlineConnect=0;fontColor=#232F3E;fillColor=#C925D1;strokeColor=#ffffff;dashed=0;verticalLabelPosition=bottom;verticalAlign=top;align=center;html=1;fontSize=12;fontStyle=0;aspect=fixed;shape=mxgraph.aws4.resourceIcon;resIcon=mxgraph.aws4.dynamodb;" vertex="1" parent="1">
          <mxGeometry x="650" y="210" width="78" height="78" as="geometry" />
        </mxCell>
        <mxCell id="aubl9fLA4f7FaGW1a_eC-8" value="CrearUsuario" style="outlineConnect=0;dashed=0;verticalLabelPosition=bottom;verticalAlign=top;align=center;html=1;shape=mxgraph.aws3.lambda_function;fillColor=#F58534;gradientColor=none;" vertex="1" parent="1">
          <mxGeometry x="345" y="53" width="69" height="72" as="geometry" />
        </mxCell>
        <mxCell id="aubl9fLA4f7FaGW1a_eC-13" style="edgeStyle=orthogonalEdgeStyle;rounded=0;orthogonalLoop=1;jettySize=auto;html=1;" edge="1" parent="1" source="aubl9fLA4f7FaGW1a_eC-9" target="aubl9fLA4f7FaGW1a_eC-7">
          <mxGeometry relative="1" as="geometry">
            <Array as="points">
              <mxPoint x="470" y="206" />
              <mxPoint x="470" y="249" />
            </Array>
          </mxGeometry>
        </mxCell>
        <mxCell id="aubl9fLA4f7FaGW1a_eC-9" value="LoginUsuario" style="outlineConnect=0;dashed=0;verticalLabelPosition=bottom;verticalAlign=top;align=center;html=1;shape=mxgraph.aws3.lambda_function;fillColor=#F58534;gradientColor=none;" vertex="1" parent="1">
          <mxGeometry x="345" y="170" width="69" height="72" as="geometry" />
        </mxCell>
        <mxCell id="aubl9fLA4f7FaGW1a_eC-10" value="&lt;b&gt;&lt;font color=&quot;#0000cc&quot;&gt;ValidarTokenAcceso&lt;/font&gt;&lt;/b&gt;" style="outlineConnect=0;dashed=0;verticalLabelPosition=bottom;verticalAlign=top;align=center;html=1;shape=mxgraph.aws3.lambda_function;fillColor=#F58534;gradientColor=none;" vertex="1" parent="1">
          <mxGeometry x="654.5" y="367" width="69" height="72" as="geometry" />
        </mxCell>
        <mxCell id="aubl9fLA4f7FaGW1a_eC-11" style="edgeStyle=orthogonalEdgeStyle;rounded=0;orthogonalLoop=1;jettySize=auto;html=1;entryX=0;entryY=0.5;entryDx=0;entryDy=0;entryPerimeter=0;" edge="1" parent="1" source="aubl9fLA4f7FaGW1a_eC-8" target="aubl9fLA4f7FaGW1a_eC-6">
          <mxGeometry relative="1" as="geometry" />
        </mxCell>
        <mxCell id="aubl9fLA4f7FaGW1a_eC-12" style="edgeStyle=orthogonalEdgeStyle;rounded=0;orthogonalLoop=1;jettySize=auto;html=1;entryX=0;entryY=0.75;entryDx=0;entryDy=0;entryPerimeter=0;" edge="1" parent="1" source="aubl9fLA4f7FaGW1a_eC-9" target="aubl9fLA4f7FaGW1a_eC-6">
          <mxGeometry relative="1" as="geometry">
            <Array as="points">
              <mxPoint x="470" y="206" />
              <mxPoint x="470" y="109" />
            </Array>
          </mxGeometry>
        </mxCell>
        <mxCell id="aubl9fLA4f7FaGW1a_eC-14" value="genera token y expiraci칩n" style="text;html=1;align=center;verticalAlign=middle;whiteSpace=wrap;rounded=0;" vertex="1" parent="1">
          <mxGeometry x="470" y="220" width="160" height="30" as="geometry" />
        </mxCell>
        <mxCell id="aubl9fLA4f7FaGW1a_eC-15" value="valida (user, pass)" style="text;html=1;align=center;verticalAlign=middle;whiteSpace=wrap;rounded=0;" vertex="1" parent="1">
          <mxGeometry x="480" y="110" width="100" height="30" as="geometry" />
        </mxCell>
        <mxCell id="aubl9fLA4f7FaGW1a_eC-16" value="registra (user, pass)" style="text;html=1;align=center;verticalAlign=middle;whiteSpace=wrap;rounded=0;" vertex="1" parent="1">
          <mxGeometry x="480" y="60" width="110" height="30" as="geometry" />
        </mxCell>
        <mxCell id="aubl9fLA4f7FaGW1a_eC-18" value="valida (token,&amp;nbsp;&lt;div&gt;expiraci칩n)&lt;/div&gt;" style="text;html=1;align=left;verticalAlign=middle;whiteSpace=wrap;rounded=0;" vertex="1" parent="1">
          <mxGeometry x="750" y="212" width="95.5" height="30" as="geometry" />
        </mxCell>
        <mxCell id="aubl9fLA4f7FaGW1a_eC-19" value="api usuarios" style="sketch=0;points=[[0,0,0],[0.25,0,0],[0.5,0,0],[0.75,0,0],[1,0,0],[0,1,0],[0.25,1,0],[0.5,1,0],[0.75,1,0],[1,1,0],[0,0.25,0],[0,0.5,0],[0,0.75,0],[1,0.25,0],[1,0.5,0],[1,0.75,0]];outlineConnect=0;fontColor=#232F3E;fillColor=#E7157B;strokeColor=#ffffff;dashed=0;verticalLabelPosition=bottom;verticalAlign=top;align=center;html=1;fontSize=12;fontStyle=0;aspect=fixed;shape=mxgraph.aws4.resourceIcon;resIcon=mxgraph.aws4.api_gateway;" vertex="1" parent="1">
          <mxGeometry x="72" y="100" width="78" height="78" as="geometry" />
        </mxCell>
        <mxCell id="aubl9fLA4f7FaGW1a_eC-20" style="edgeStyle=orthogonalEdgeStyle;rounded=0;orthogonalLoop=1;jettySize=auto;html=1;entryX=0;entryY=0.5;entryDx=0;entryDy=0;entryPerimeter=0;" edge="1" parent="1" source="aubl9fLA4f7FaGW1a_eC-19" target="aubl9fLA4f7FaGW1a_eC-8">
          <mxGeometry relative="1" as="geometry">
            <Array as="points">
              <mxPoint x="180" y="139" />
              <mxPoint x="180" y="89" />
            </Array>
          </mxGeometry>
        </mxCell>
        <mxCell id="aubl9fLA4f7FaGW1a_eC-21" style="edgeStyle=orthogonalEdgeStyle;rounded=0;orthogonalLoop=1;jettySize=auto;html=1;entryX=0;entryY=0.5;entryDx=0;entryDy=0;entryPerimeter=0;" edge="1" parent="1" source="aubl9fLA4f7FaGW1a_eC-19" target="aubl9fLA4f7FaGW1a_eC-9">
          <mxGeometry relative="1" as="geometry">
            <Array as="points">
              <mxPoint x="180" y="139" />
              <mxPoint x="180" y="206" />
            </Array>
          </mxGeometry>
        </mxCell>
        <mxCell id="aubl9fLA4f7FaGW1a_eC-22" value="POST /usuarios/crear&amp;nbsp;" style="text;html=1;align=center;verticalAlign=middle;whiteSpace=wrap;rounded=0;" vertex="1" parent="1">
          <mxGeometry x="170" y="60" width="152" height="30" as="geometry" />
        </mxCell>
        <mxCell id="aubl9fLA4f7FaGW1a_eC-23" value="POST /usuarios/login" style="text;html=1;align=center;verticalAlign=middle;whiteSpace=wrap;rounded=0;" vertex="1" parent="1">
          <mxGeometry x="170" y="178" width="152" height="30" as="geometry" />
        </mxCell>
        <mxCell id="aubl9fLA4f7FaGW1a_eC-27" style="edgeStyle=orthogonalEdgeStyle;rounded=0;orthogonalLoop=1;jettySize=auto;html=1;" edge="1" parent="1" source="aubl9fLA4f7FaGW1a_eC-24" target="aubl9fLA4f7FaGW1a_eC-25">
          <mxGeometry relative="1" as="geometry" />
        </mxCell>
        <mxCell id="aubl9fLA4f7FaGW1a_eC-24" value="api productos &lt;b&gt;&lt;font color=&quot;#0000cc&quot;&gt;(protegida)&lt;/font&gt;&lt;/b&gt;" style="sketch=0;points=[[0,0,0],[0.25,0,0],[0.5,0,0],[0.75,0,0],[1,0,0],[0,1,0],[0.25,1,0],[0.5,1,0],[0.75,1,0],[1,1,0],[0,0.25,0],[0,0.5,0],[0,0.75,0],[1,0.25,0],[1,0.5,0],[1,0.75,0]];outlineConnect=0;fontColor=#232F3E;fillColor=#E7157B;strokeColor=#ffffff;dashed=0;verticalLabelPosition=bottom;verticalAlign=top;align=center;html=1;fontSize=12;fontStyle=0;aspect=fixed;shape=mxgraph.aws4.resourceIcon;resIcon=mxgraph.aws4.api_gateway;" vertex="1" parent="1">
          <mxGeometry x="82" y="364" width="78" height="78" as="geometry" />
        </mxCell>
        <mxCell id="aubl9fLA4f7FaGW1a_eC-25" value="CrearProducto" style="outlineConnect=0;dashed=0;verticalLabelPosition=bottom;verticalAlign=top;align=center;html=1;shape=mxgraph.aws3.lambda_function;fillColor=#F58534;gradientColor=none;" vertex="1" parent="1">
          <mxGeometry x="350" y="367" width="69" height="72" as="geometry" />
        </mxCell>
        <mxCell id="aubl9fLA4f7FaGW1a_eC-26" style="edgeStyle=orthogonalEdgeStyle;rounded=0;orthogonalLoop=1;jettySize=auto;html=1;entryX=1;entryY=0.5;entryDx=0;entryDy=0;entryPerimeter=0;exitX=1;exitY=0.5;exitDx=0;exitDy=0;exitPerimeter=0;" edge="1" parent="1" source="aubl9fLA4f7FaGW1a_eC-10" target="aubl9fLA4f7FaGW1a_eC-7">
          <mxGeometry relative="1" as="geometry">
            <Array as="points">
              <mxPoint x="850" y="403" />
              <mxPoint x="850" y="249" />
            </Array>
          </mxGeometry>
        </mxCell>
        <mxCell id="aubl9fLA4f7FaGW1a_eC-29" value="POST /productos/crear" style="text;html=1;align=center;verticalAlign=middle;whiteSpace=wrap;rounded=0;" vertex="1" parent="1">
          <mxGeometry x="170" y="370" width="152" height="30" as="geometry" />
        </mxCell>
        <mxCell id="aubl9fLA4f7FaGW1a_eC-32" value="" style="endArrow=classic;html=1;rounded=0;exitX=0.145;exitY=0.855;exitDx=0;exitDy=0;exitPerimeter=0;" edge="1" parent="1" source="aubl9fLA4f7FaGW1a_eC-9">
          <mxGeometry width="50" height="50" relative="1" as="geometry">
            <mxPoint x="130" y="310" as="sourcePoint" />
            <mxPoint x="50" y="232" as="targetPoint" />
          </mxGeometry>
        </mxCell>
        <mxCell id="aubl9fLA4f7FaGW1a_eC-33" value="&lt;b&gt;&lt;font color=&quot;#0000cc&quot;&gt;devuelve token para acceso a apis protegidas&lt;/font&gt;&lt;/b&gt;" style="text;html=1;align=center;verticalAlign=middle;whiteSpace=wrap;rounded=0;" vertex="1" parent="1">
          <mxGeometry x="65" y="230" width="280" height="20" as="geometry" />
        </mxCell>
        <mxCell id="aubl9fLA4f7FaGW1a_eC-34" value="1" style="ellipse;whiteSpace=wrap;html=1;aspect=fixed;" vertex="1" parent="1">
          <mxGeometry x="600" y="60" width="23" height="23" as="geometry" />
        </mxCell>
        <mxCell id="aubl9fLA4f7FaGW1a_eC-35" value="2" style="ellipse;whiteSpace=wrap;html=1;aspect=fixed;" vertex="1" parent="1">
          <mxGeometry x="590" y="113.5" width="23" height="23" as="geometry" />
        </mxCell>
        <mxCell id="aubl9fLA4f7FaGW1a_eC-36" value="3" style="ellipse;whiteSpace=wrap;html=1;aspect=fixed;" vertex="1" parent="1">
          <mxGeometry x="623" y="219" width="23" height="23" as="geometry" />
        </mxCell>
        <mxCell id="aubl9fLA4f7FaGW1a_eC-37" value="4" style="ellipse;whiteSpace=wrap;html=1;aspect=fixed;" vertex="1" parent="1">
          <mxGeometry x="49" y="238.5" width="23" height="23" as="geometry" />
        </mxCell>
        <mxCell id="aubl9fLA4f7FaGW1a_eC-38" value="5" style="ellipse;whiteSpace=wrap;html=1;aspect=fixed;" vertex="1" parent="1">
          <mxGeometry x="550" y="350" width="23" height="23" as="geometry" />
        </mxCell>
        <mxCell id="aubl9fLA4f7FaGW1a_eC-39" value="" style="endArrow=classic;html=1;rounded=0;exitX=0.145;exitY=0.855;exitDx=0;exitDy=0;exitPerimeter=0;entryX=0.855;entryY=0.855;entryDx=0;entryDy=0;entryPerimeter=0;" edge="1" parent="1" source="aubl9fLA4f7FaGW1a_eC-10" target="aubl9fLA4f7FaGW1a_eC-25">
          <mxGeometry width="50" height="50" relative="1" as="geometry">
            <mxPoint x="520" y="370" as="sourcePoint" />
            <mxPoint x="570" y="320" as="targetPoint" />
          </mxGeometry>
        </mxCell>
        <mxCell id="aubl9fLA4f7FaGW1a_eC-40" value="" style="endArrow=classic;html=1;rounded=0;entryX=0.145;entryY=0.145;entryDx=0;entryDy=0;entryPerimeter=0;exitX=0.855;exitY=0.145;exitDx=0;exitDy=0;exitPerimeter=0;" edge="1" parent="1" source="aubl9fLA4f7FaGW1a_eC-25" target="aubl9fLA4f7FaGW1a_eC-10">
          <mxGeometry width="50" height="50" relative="1" as="geometry">
            <mxPoint x="410" y="380" as="sourcePoint" />
            <mxPoint x="460" y="330" as="targetPoint" />
          </mxGeometry>
        </mxCell>
        <mxCell id="aubl9fLA4f7FaGW1a_eC-41" value="token" style="text;html=1;align=center;verticalAlign=middle;whiteSpace=wrap;rounded=0;" vertex="1" parent="1">
          <mxGeometry x="454" y="350" width="152" height="30" as="geometry" />
        </mxCell>
        <mxCell id="aubl9fLA4f7FaGW1a_eC-42" value="autoriza acceso" style="text;html=1;align=center;verticalAlign=middle;whiteSpace=wrap;rounded=0;" vertex="1" parent="1">
          <mxGeometry x="454" y="400" width="152" height="30" as="geometry" />
        </mxCell>
        <mxCell id="aubl9fLA4f7FaGW1a_eC-45" value="6" style="ellipse;whiteSpace=wrap;html=1;aspect=fixed;" vertex="1" parent="1">
          <mxGeometry x="827" y="219" width="23" height="23" as="geometry" />
        </mxCell>
        <mxCell id="aubl9fLA4f7FaGW1a_eC-46" value="7" style="ellipse;whiteSpace=wrap;html=1;aspect=fixed;" vertex="1" parent="1">
          <mxGeometry x="457" y="400" width="23" height="23" as="geometry" />
        </mxCell>
        <mxCell id="aubl9fLA4f7FaGW1a_eC-47" value="token, producto" style="text;html=1;align=center;verticalAlign=middle;whiteSpace=wrap;rounded=0;" vertex="1" parent="1">
          <mxGeometry x="170" y="396.5" width="152" height="30" as="geometry" />
        </mxCell>
        <mxCell id="aubl9fLA4f7FaGW1a_eC-48" value="t_productos" style="sketch=0;points=[[0,0,0],[0.25,0,0],[0.5,0,0],[0.75,0,0],[1,0,0],[0,1,0],[0.25,1,0],[0.5,1,0],[0.75,1,0],[1,1,0],[0,0.25,0],[0,0.5,0],[0,0.75,0],[1,0.25,0],[1,0.5,0],[1,0.75,0]];outlineConnect=0;fontColor=#232F3E;fillColor=#C925D1;strokeColor=#ffffff;dashed=0;verticalLabelPosition=bottom;verticalAlign=top;align=center;html=1;fontSize=12;fontStyle=0;aspect=fixed;shape=mxgraph.aws4.resourceIcon;resIcon=mxgraph.aws4.dynamodb;" vertex="1" parent="1">
          <mxGeometry x="900" y="367" width="78" height="78" as="geometry" />
        </mxCell>
        <mxCell id="aubl9fLA4f7FaGW1a_eC-50" value="" style="endArrow=classic;html=1;rounded=0;entryX=0;entryY=0.5;entryDx=0;entryDy=0;entryPerimeter=0;" edge="1" parent="1" target="aubl9fLA4f7FaGW1a_eC-48">
          <mxGeometry width="50" height="50" relative="1" as="geometry">
            <mxPoint x="390" y="460" as="sourcePoint" />
            <mxPoint x="580" y="500" as="targetPoint" />
            <Array as="points">
              <mxPoint x="390" y="500" />
              <mxPoint x="630" y="500" />
              <mxPoint x="870" y="500" />
              <mxPoint x="870" y="406" />
            </Array>
          </mxGeometry>
        </mxCell>
        <mxCell id="aubl9fLA4f7FaGW1a_eC-51" value="8" style="ellipse;whiteSpace=wrap;html=1;aspect=fixed;" vertex="1" parent="1">
          <mxGeometry x="839.5" y="470" width="23" height="23" as="geometry" />
        </mxCell>
        <mxCell id="aubl9fLA4f7FaGW1a_eC-52" value="registra producto" style="text;html=1;align=center;verticalAlign=middle;whiteSpace=wrap;rounded=0;" vertex="1" parent="1">
          <mxGeometry x="730" y="473" width="120" height="20" as="geometry" />
        </mxCell>
      </root>
    </mxGraphModel>
  </diagram>
</mxfile>
